<?xml version="1.0" standalone="no"?><svg xmlns:xlink="http://www.w3.org/1999/xlink" xmlns="http://www.w3.org/2000/svg" viewBox="0 0 1440 119.98423430962342" preserveAspectRatio="xMaxYMax slice"><g transform="scale(1.506276150627615)"><rect x="0" y="0" width="956" height="79.66666666666667" fill="#ffffff"/><polygon points="0,0 79.67,79.67 0,79.67" fill="#F9E559"/><rect x="79.66666666666667" y="0" width="79.66666666666667" height="79.66666666666667" fill="#ffffff"/><polygon points="79.67,0 119.5,0 119.5,39.83" fill="#F9E559"/><polygon points="119.5,0 159.32999999999998,0 119.5,39.83" fill="#3B5249"/><polygon points="79.67,39.83 119.5,79.66 79.67,79.66" fill="#F9E559"/><polygon points="159.32999999999998,39.83 159.32999999999998,79.66 119.5,79.66" fill="#3B5249"/><polygon points="239,0 239,79.67 159.33,79.67" fill="#3B5249"/><rect x="239" y="0" width="79.66666666666667" height="79.66666666666667" fill="#ffffff"/><polygon points="239,0 278.83,39.83 239,39.83" fill="#3B5249"/><polygon points="318.65999999999997,0 318.65999999999997,39.83 278.83,39.83" fill="#3B5249"/><polygon points="278.83,39.83 278.83,79.66 239,79.66" fill="#F9E559"/><polygon points="318.65999999999997,39.83 318.65999999999997,79.66 278.83,79.66" fill="#F9E559"/><polygon points="398.34000000000003,0 398.34000000000003,79.67 318.67,79.67" fill="#F9E559"/><polygon points="398.33,0 478,0 398.33,79.67" fill="#F9E559"/><polygon points="557.67,0 557.67,79.67 478,79.67" fill="#3B5249"/><polygon points="557.67,0 637.3399999999999,79.67 557.67,79.67" fill="#C14A09"/><rect x="637.3333333333334" y="0" width="79.66666666666667" height="79.66666666666667" fill="#ffffff"/><polygon points="637.33,0 677.1600000000001,39.83 637.33,39.83" fill="#3B5249"/><polygon points="717,0 717,39.83 677.17,39.83" fill="#3B5249"/><polygon points="637.33,39.83 677.1600000000001,39.83 677.1600000000001,79.66" fill="#C14A09"/><polygon points="717,39.83 717,79.66 677.17,79.66" fill="#C14A09"/><polygon points="717,0 796.67,79.67 717,79.67" fill="#C14A09"/><rect x="796.6666666666667" y="0" width="79.66666666666667" height="79.66666666666667" fill="#ffffff"/><polygon points="796.67,0 836.5,0 796.67,39.83" fill="#F9E559"/><polygon points="836.5,0 876.33,39.83 836.5,39.83" fill="#C14A09"/><polygon points="796.67,39.83 836.5,39.83 836.5,79.66" fill="#F9E559"/><polygon points="876.33,39.83 876.33,79.66 836.5,79.66" fill="#C14A09"/><rect x="876.3333333333334" y="0" width="79.66666666666667" height="79.66666666666667" fill="#ffffff"/><polygon points="876.33,0 916.1600000000001,0 916.1600000000001,39.83" fill="#F9E559"/><polygon points="956,0 956,39.83 916.17,39.83" fill="#F9E559"/><polygon points="876.33,39.83 916.1600000000001,79.66 876.33,79.66" fill="#F9E559"/><polygon points="916.17,39.83 956,39.83 956,79.66" fill="#F9E559"/></g></svg>